<svg xmlns="http://www.w3.org/2000/svg" xmlns:xlink="http://www.w3.org/1999/xlink" width="570" height="412.122" viewBox="0 0 570 412.122">
  <defs>
    <linearGradient id="linear-gradient" x1="0.473" y1="1.165" x2="0.512" y2="-0.004" gradientUnits="objectBoundingBox">
      <stop offset="0" stop-color="#82acf5"/>
      <stop offset="1" stop-color="#f8bdec"/>
    </linearGradient>
  </defs>
  <g id="NRI_services-innerimg" transform="translate(-1190.182 -250.499)">
    <path id="Path_2154" data-name="Path 2154" d="M1780.888,440.969c-10.859-40.469-61.869-53.483-90.807-23.182a53.76,53.76,0,0,0-104.724,11.126,40.684,40.684,0,1,0-7.863,80.8l56.881,1.722a40.68,40.68,0,0,0,33.214,19.036l122.489,3.706a47.222,47.222,0,1,0-9.191-93.214Z" transform="translate(-233.398 -87.134)" fill="#cbffec"/>
    <path id="Path_2155" data-name="Path 2155" d="M1521.657,588.25c107-7.552,255.628-52.236,295.161-158.55l.869.331C1797.408,521.8,1703,579.672,1616.753,612.8c-44.914,17.205-85.481,26.447-92.237,27.313Z" transform="translate(-222.407 -120.237)" fill="#5ca9ff"/>
    <g id="Group_3685" data-name="Group 3685" transform="translate(1190.182 366.749)">
      <path id="Path_2156" data-name="Path 2156" d="M1303.159,755.571s28.017,8.741,30.936,18.664,0,9.922,0,13.466,8.172,4.016,8.172,4.016l-8.172,1.654s3.793,3.78,9.339,8.269,22.444,7.8,28.149,15.828,2.106,17.6,6.4,25.793,13.825,33.153,13.825,33.153h1.827s-5.547-64.143-11.385-71.468-11.09-9.214-17.8-18.663-7-17.719-20.72-25.278S1303.159,755.571,1303.159,755.571Z" transform="translate(-1265.985 -705.447)" fill="#b782b3"/>
      <path id="Path_2157" data-name="Path 2157" d="M1512.916,730.468s.641-38.272-5.653-52.211a70.942,70.942,0,0,1-6.044-27.406h5.857l-7.752-5.433s6.269-12.521,7.94-23.152-16.067-18.428-16.067-18.428,21.84-1.89,28.839,20.79-3.635,30.919,4.375,36.147,0,69.693,0,69.693l-3.2,28.6h-3.23Z" transform="translate(-1392.151 -603.8)" fill="#6a4167"/>
      <path id="Path_2158" data-name="Path 2158" d="M1572.576,1086.593s6.566-21.971,6.566-27.995,1.97-21.972,10.507-25.515l30.425-1.418s-15.706,6.423-23.75,12.934-12.147,5.671-14.117,16.3-7.662,28-7.662,28Z" transform="translate(-1446.754 -890.881)" fill="#79407d"/>
      <path id="Path_2159" data-name="Path 2159" d="M1696.476,1070.9s-11.163-3.012-14.666-9.391-10.287-12.579-21.669-16.124-28.893-18.6-35.678-17.364c0,0,4.159-1.418,12.039-1.418s11.383-2.48,18.387-2.48,16.635,11.517,19.7,11.517,10.069,6.555,13.352,12.757S1689.472,1067.183,1696.476,1070.9Z" transform="translate(-1481.568 -885.823)" fill="#b782b3"/>
      <path id="Path_2160" data-name="Path 2160" d="M1412.731,997.057s-18.4-61.033-19.753-69.2-7.6-29.515-19.98-33.065l-41.59,2.552s22.747,6.4,35.12,14.052,17.752,5.9,22.81,20.036,17.557,65.039,17.557,65.039Z" transform="translate(-1284.94 -799.041)" fill="#79407d"/>
      <path id="Path_2161" data-name="Path 2161" d="M1190.182,961.422s14.467-5.728,17.784-14.9,11.132-18.578,25.775-25.059,35.017-29.487,44.5-28.8c0,0-5.959-1.311-16.648-.152s-16-1.69-25.5-.66-19.98,18.07-24.138,18.521-12.186,10.374-15.248,19.27S1198.848,955.344,1190.182,961.422Z" transform="translate(-1190.182 -796.918)" fill="#a563a0"/>
      <path id="Path_2162" data-name="Path 2162" d="M1563.413,865.95s-3.5-36.619,0-52.448,7.375-25.751,7.375-34.02,13.345-22.68,21.518-22.68,44.944-2.6,47.278-4.489,14.885,2.6,14.885,2.6-16.489,2.953-26.557,11.1c-7.093,5.741-35.023,7.088-40.859,23.389s-21.669,73.947-21.669,73.947Z" transform="translate(-1439.562 -703.135)" fill="#79407d"/>
      <path id="Path_2163" data-name="Path 2163" d="M1724.1,759.931c-9.923-8.032-25.1-9.906-32.687-8.734s-4.013,1.882-17.329,1.882-29.33,3.676-29.33,3.676,27.106-.6,47.536,5.066,28.18-1.22,32.395,12.757c3.044,10.094.292,25.514.292,25.514S1734.021,767.963,1724.1,759.931Z" transform="translate(-1495.18 -702.483)" fill="#b782b3"/>
      <path id="Path_2164" data-name="Path 2164" d="M1509.919,1034.44s1.9,8.269-.73,15.829-4.815,38.627-4.815,38.627l-3.064-.59s1.6-24.275-.73-28.025-12.477-8.417-18.386-13.2-10.069-15.415-10.069-15.415,21.159,6.319,26.7,5.139Z" transform="translate(-1379.355 -890.881)" fill="#50314d"/>
      <path id="Path_2165" data-name="Path 2165" d="M1626.316,937.773s-13.571-10.395-23.639-10.395-23.117,15.512-27,25.632-5.544,65.914-5.544,65.914h2.772s7.443-58.859,15.1-68.411,18.168-4.945,21.669-4.945l4.038-4.962v5.317s6.906,15.769,24.855,15.769Z" transform="translate(-1445.116 -820.908)" fill="#6a4167"/>
      <path id="Path_2166" data-name="Path 2166" d="M1199.98,955.391c5-8.3,1.4-34.034,28.577-43.85,15.878-5.865,7.34-3.719,17.466-10.091,3.529-2.2,7.312-4.07,10.995-6.326-1.26.014-2.448-.025-3.588-.093-4.951,2.931-11.112,6.174-14.046,9.254-2.821,3.353-6.54,4.134-11.51,6.066-27.567,10.5-23.511,36.809-28.162,44.938a20.776,20.776,0,0,1-9.469,8.467A21.174,21.174,0,0,0,1199.98,955.391Z" transform="translate(-1190.222 -799.205)" fill="#ece7ef"/>
      <path id="Path_2167" data-name="Path 2167" d="M1707.351,1044.331a42.316,42.316,0,0,0-9.286-5.282c-6.376-2.642-8.394-1.117-19.979-9.516-.791.159-1.611.305-2.48.424,13.156,9.269,15.093,7.5,21.826,10.119,6.478,2.563,12.784,6.626,15.622,12.047,4.489,7.986,8.583,19.216,17.758,22.455C1724.427,1072.161,1717.534,1052.191,1707.351,1044.331Z" transform="translate(-1515.883 -889.45)" fill="#ece7ef"/>
      <g id="Group_3684" data-name="Group 3684" transform="translate(187.241 49.889)">
        <path id="Path_2168" data-name="Path 2168" d="M1801.831,803.063a168.128,168.128,0,0,0,2.548-20.7,34.565,34.565,0,0,0-.151-5.262,23.265,23.265,0,0,0-4.4-9.926c-7.489-9.1-21.046-7.2-36.953-11.76a19.468,19.468,0,0,1-3.634.559c19.49,6.2,40.824,1.243,44.287,21.2.812,5.125-.24,15.085-1.15,21.968C1802.136,801.209,1801.9,802.648,1801.831,803.063Z" transform="translate(-1759.237 -755.419)" fill="#ece7ef"/>
        <path id="Path_2169" data-name="Path 2169" d="M1888.62,900.59Z" transform="translate(-1846.048 -852.823)" fill="#ece7ef"/>
      </g>
      <path id="Path_2170" data-name="Path 2170" d="M1535.8,1276.657l-48.846-.289-4.85-74.021h57.932Z" transform="translate(-1386.051 -1005.402)" fill="#a6e9ff"/>
      <path id="Path_2171" data-name="Path 2171" d="M1448.832,1097.014a68.541,68.541,0,0,1,5.691-15.12c3.648-6.5,5.983-7.915,5.983-14.293s-.937-9.991,4.233-14.175,2.042-11.694,4.962-14.056,15.466-10.987,15.466-10.987a37.2,37.2,0,0,0-20.137-2.244c-10.8,2.009-12.257-5.433-19.7-3.011s-6.129,18.723-4.961,25.456-4.377,14.292-5.107,20.081S1448.832,1097.014,1448.832,1097.014Z" transform="translate(-1354.603 -884.823)" fill="#a563a0"/>
      <path id="Path_2172" data-name="Path 2172" d="M1481.885,1034.138c-13.168,15.829-10.982,29.191-11.3,33-.687,13.4-4.9,21.021.5,37.639h0c-4.873-16.7-.435-24.149.677-37.582.583-5.112-.45-9.77,3.316-18.491a53.824,53.824,0,0,1,9.393-14.47A15.455,15.455,0,0,1,1481.885,1034.138Z" transform="translate(-1376.839 -892.54)" fill="#ece7ef"/>
    </g>
    <path id="Path_2173" data-name="Path 2173" d="M2572.95,480.629s-3.732-10.065-16.272-6.086-4.012,52.263,9.146,49.393,36.167-22.406,31.12-33.767S2572.95,480.629,2572.95,480.629Z" transform="translate(-912.752 -149.701)" fill="#cbffec"/>
    <g id="Group_3687" data-name="Group 3687" transform="translate(1510.614 331.334)">
      <g id="Group_3686" data-name="Group 3686">
        <path id="Path_2174" data-name="Path 2174" d="M2400.242,620.509c-8.02-8.267-7.147-9.925-16.408-8.346-2.439,4.8-6.891,12.218-11.123,12.218-4.249,0-1.474-7.475.747-12.274-3.987-.942-6.419-2.673-7.688-2.673-1.048,0-6.639,17.894-8.317,22.258-3.465,1.3-7.546-8.354-4.017-16.2-2.336-2.487-5.7.389-9.5,2.159-3.265,1.523-4.288,7.238-6.319,13.1a80.423,80.423,0,0,0-7.644,4.917c-.036-5.337,5.993-18.371,5.993-18.371s-21.485,7.145-21.485,11.076,14.208,10.718,7.97,10.718-13.169-10.361-13.169-10.361-11.178,6.074-9.053,12.863-4.781,9.235-7.053,11.578c-.005.005-.005.01-.01.016-5.264,1.926-11.959,5.8-14.839,8.772-4.852,5,8.895,34.42,5.314,38.113s-10.858-28.585-10.858-31.681c0-1.784-1.552-1.932-3.559-.506,5.819-33.193,14.84-61.879,28.891-76.419,5.422-5.817,11.668-9.141,17.44-12.71-1.038,1.726-1.939,4.8-1.939,10.314,0,13.041,32.553,17.351,27.723,12.37s-10.223-20.41-7.623-20.41,6.93,16.257,13.861,19.652,15.075-5.717,15.075-5.717-21.746-16.882-19.58-19.115,20.966,20.365,26.165,22.51,14.728-8.218,14.728-8.218-35.868-19.83-34.858-23.225,33.3,21.081,38.323,19.473,9.356-11.97,9.356-11.97-36.387-12.684-35-15.721,30.494,13.4,34.653,12.505,2.079-13.22,2.079-15.364-22.438-5.27-24.6-7.5,22.005,4.109,23.739,4.109,3.638-2.144,1.906-6.253-3.293-17.686-3.293-17.686c-2.08,0-11.262-7.5-12.822-9.111s-7.451,12.684-9.7,12.684,6.584-12.863,6.584-15.9-5.546-5.717-10.05-5.717-11.436,31.021-13.514,31.021,7.277-31.735,5.891-33.164-5.371-3.573-13.688-2.322-3.638,37.516-6.584,40.553,0-38.409,0-39.481-10.4,1.787-14.036,5.539,2.6,38.766,0,41.446-4.678-33.407-4.678-37.159-3.292-4.109-12.647,8.04a12.9,12.9,0,0,0-2.391,10.616c-14.733,6.705-11.8,31.03-5.407,37.618a13.867,13.867,0,0,0,10.22,4.173c-14.1,8.575-22.737,14.411-32.342,37.089-.008-7.676-.829-24.312-4.851-28.459-4.043-4.168,4.852-1.906,4.852-6.194s-.463-20.723-2.311-22.628-6.7,13.1-9.7,10,8.548-12.387,8.548-13.577-6.7-23.582-8.318-23.582-.461,9.766-5.082,12.148,2.542-13.816,2.542-18.818-4.737-6.074-10.165-11.671-11.552-15.484-11.552-15.484a198.176,198.176,0,0,0,11.782,30.966c6.753,13.475,8.575,63.56,8.763,69.246-.4.452-.031-4.787-1.35,77.776a8.851,8.851,0,0,0-.063,3.958c-.045,2.769.141-.69-1.489,12.267-1.565-4.834-2.6-8.417-2.6-8.417s-.892.977-2.158,2.593c-.709-4.309-2.232-7.65-4.8-8.667,0,0-1.253,1.314-3.1,3.119-.4-13.824-1.841-64.665-6.666-77.487a16.772,16.772,0,0,0,6.831-1.96c9.747-4.708-1.786-38.731-3.319-32.116s-10.62,17.563-11.8,14.972,9.009-12.781,8.4-20.918-11.1-12.972-11.1-12.972-2.761,27.782-5.411,26.428,5.718-28.262,4.965-34.219-12.816-11.722-12.816-11.722,1.435,42.929-1.559,43.149.663-40.82-2.816-45.251-13.185-5.011-13.185-5.011,7.011,40.869,4.113,40.583-3.807-35.251-6.358-39.076-10.823,2.7-12.425,3.473,6.231,24.281,5.543,27.247-6.9-23.43-7.688-25.158-3.251-2.854-5.535.356-11.725,9.667-11.725,9.667c.941,2.075-.5,13.942-1,16.078s12.855,2.852,13.876,5.1-12.6-1.923-14.865-.827-1.76,7.594.282,12.087,28.363.208,29.306,2.282-27.013,4.2-27.453,6.1-.236,6.647,4.467,14.49,29.686-9.913,33.291-8.072-28.7,13.866-29.5,14.252,6.045,9.724,10.5,12,27.792-16.586,30.974-14.961-22.846,16.725-25.65,18.08-1.578,4.766,11.741,9.713a8.63,8.63,0,0,0,9.011-1.446c11.206,11.773,27.147,1.49,30.233-7.091,1.542,13.066,2.572,31.377,3.239,51.933-2.858-5.04-8.7-10.723-11.515-7.818-3.812,3.931-7.8,20.9-12.129,16.436s10.743-16.078,9.011-22.868-7.59-12.635-9.8-10.361-1.64,25.368-4.412,22.51,4.114-25.862,2.079-27.96-12.359-12.056-16.171-8.128,4.505,25.131,2.311,22.868-7.624-25.963-10.628-29.06-7.754.789-10.626-2.175c0,0-.579,6.581-2.08,8.13s14.555,15.482,12.476,15.482-15.247-12.623-15.247-12.623,1.04,13.457,3.927,16.436,18.251,5.478,18.251,8.1-19.867-3.334-19.867-3.334,3.928,15.484,10.858,17.389,17.789.476,17.789,3.1-13.63.953-13.63.953,3.234,19.057,12.244,19.057,10.036-1.668,10.036,1.666-7.033-2.382-7.033,3.574,6.535,17.9,9.933,14.392a18.993,18.993,0,0,0,3.8-6.746,602.593,602.593,0,0,1,14.462,76.891h2.794a603.911,603.911,0,0,0-15.015-79.286c3.035,1.936,10.908,6.7,17.281,8.464a50.365,50.365,0,0,0,1.98,18.014c.1,18.791.06,37.027-.037,52.807h4.1c.049-13.491.052-28.782-.05-44.7a12.946,12.946,0,0,0,6.558,4.653c-.957,13.78-1.684,27.371-2.223,40.051h3.727c.355-12.273.881-25.528,1.7-39.237a18.514,18.514,0,0,0,2.2.236c-.307,16.005-.572,28.77-.787,39h2.726c.136-11.535.291-24.882.448-39.073a21.6,21.6,0,0,0,8.3-2.535c-3.437,11.938-5.266,26.883-6.1,41.608h2.533c.586-12.059,1.761-24.086,3.832-34.06a33.7,33.7,0,0,0,2.523,8.833c5.313,12.625,27.953,7.146,27.953,7.146-13.861,0-17.788-24.059-13.63-25.963s1.848,20.008,15.478,23.344,17.789-7.861,17.789-7.861c-10.626-2.143-29.683-20.124-26.1-23.819s21.249,21.438,28.41,21.438,15.017-19.533,15.017-19.533c-8.779,5.241-37.427-8.575-40.094-13.338s28.312,12.624,39.631,10.48,10.627-22.629,10.627-22.629c-3.58,3.693-34.653.24-37.888-3.1s30.727,1.668,37.195-1.667,4.39-20.392,4.39-20.392-23.564,5.146-29.571,3.478,24.719-4.764,27.491-11.91-4.073-23.723-4.073-23.723c-3.175,3.274-13.168.562-17.322.077,11.312-5.587,24.525-12.028,30.2-14.466,9.507-4.087,35.224-5.264,47.374-1.518,2.654,1.057,4.236,1.875,4.236,1.875A110.186,110.186,0,0,0,2400.242,620.509Zm-90.091-77.355a12.635,12.635,0,0,0,.175-2.3c3.219,7.232,9.178,13.2,8.315,14.09C2317.168,556.463,2309.284,548.156,2310.152,543.153Zm-92.678,76.438a7.937,7.937,0,0,0-1.8.654c3.946-5.821,5.708-13.918,6.761-13.378C2224.239,607.788,2221.6,618.649,2217.474,619.591Zm16.614,69.876c-2.556-2.635,8.135-8.625,12.087-13.258.058,2.081.112,4.185.163,6.3C2241.6,686.794,2235.833,691.268,2234.087,689.468Zm25.009,35.717c-2.453-.324-5.594-4.538-8.273-8.2q-.019-1.364-.037-2.727a3.672,3.672,0,0,0,2.6-1.731c2.172,3.066,4.548,5.607,6.145,7.616Q2259.31,722.657,2259.1,725.185Zm7.242-127.766c2.667,2.982.994,18.184,5.06,22.376,2.352,2.427,4.965,2.918,6.889,1.693a240.319,240.319,0,0,0-12.107,45.367C2266.471,632.137,2266.605,603.709,2266.338,597.418Zm8.986,118.37c-2.43,1.073-6.244-7.415-9.447-16.156.119-11.984-.007-9.682.517-13.507C2270.618,698.266,2278.643,714.322,2275.324,715.788Zm27.261-29.061c-6.01,0-2.859-19.991-2.214-29.39,1.347.452,2.758.891,4.13,1.3C2304.468,668.741,2308.022,686.727,2302.585,686.727Zm18.482-15.721c-3.666.9.976-10.417,3.463-16q2.286-1.135,4.807-2.385C2326.944,656.792,2325.15,670,2321.067,671.006Z" transform="translate(-2164.024 -496.168)" fill="url(#linear-gradient)"/>
      </g>
    </g>
    <ellipse id="Ellipse_40" data-name="Ellipse 40" cx="195.912" cy="19.756" rx="195.912" ry="19.756" transform="translate(1301.429 611.589)" fill="#0089a9"/>
    <path id="Path_2175" data-name="Path 2175" d="M1618.648,389.81s-31.67,1.28-29.3,11.685,26.679,17.889,34.958,13.9S1641.587,393.135,1618.648,389.81Z" transform="translate(-267.741 -93.472)" fill="#cbffec"/>
    <path id="Path_2176" data-name="Path 2176" d="M1482.018,443.448s-19.542-8.527-30.957,2.886,23.852,15.153,29.8,9.205A9.049,9.049,0,0,0,1482.018,443.448Z" transform="translate(-173.525 -127.408)" fill="#cbffec"/>
    <path id="Path_2177" data-name="Path 2177" d="M1866.689,1395.562l-1.877,13.1s-3.492,9.9-3.492,11.351c0,.4,2.9,4.188,6.291,4.258,4.742.1,10.565-3.914,11.884-6.769a8.147,8.147,0,0,0,.479-1.273c1.426-5.292-2.064-21.831-2.064-21.831Z" transform="translate(-450.307 -767.511)" fill="#fc7575"/>
    <path id="Path_2178" data-name="Path 2178" d="M1964.775,1390.858s-1.525,11.755-2.189,18.269c-.09.891,2.925,8.6,7.133,8.451,4.359-.159,9.912-8.22,9.787-9.25-.861-7.081-2.8-17.469-2.8-17.469Z" transform="translate(-518.251 -765.137)" fill="#fc7575"/>
    <rect id="Rectangle_854" data-name="Rectangle 854" width="300.248" height="16.063" transform="translate(1341.854 560.233)" fill="#c1272d"/>
    <path id="Path_2179" data-name="Path 2179" d="M1901.769,1133.41H1559.177a28.649,28.649,0,0,1,28.649-28.649H1875.3a26.472,26.472,0,0,1,26.472,26.472Z" transform="translate(-247.581 -573.177)" fill="#fcd4a5"/>
    <path id="Rectangle_855" data-name="Rectangle 855" d="M87,0H205.286a87,87,0,0,1,87,87v0a0,0,0,0,1,0,0H0a0,0,0,0,1,0,0v0A87,87,0,0,1,87,0Z" transform="translate(1344.477 444.585)" fill="#f6861f"/>
    <path id="Path_2180" data-name="Path 2180" d="M1914.313,840.355H1696.191a37.081,37.081,0,0,0-37.082,37.08V886.8a37.081,37.081,0,0,1,37.082-37.082h218.121A37.081,37.081,0,0,1,1951.4,886.8v-9.366A37.081,37.081,0,0,0,1914.313,840.355Z" transform="translate(-314.632 -395.77)" fill="#faba7f"/>
    <rect id="Rectangle_856" data-name="Rectangle 856" width="342.592" height="12.046" transform="translate(1311.596 548.187)" fill="#fb4c12"/>
    <path id="Path_2181" data-name="Path 2181" d="M1812.333,578.356c2.427,8.925,6.353,9.793,6.455,9.915,4.227,1.438,13.535-4.282,17.276-6.695-3.585,3.46-9.608,8.059-14.385,9.089-6.563,1.345-10.792-5.415-11.8-11.859Z" transform="translate(-415.793 -219.979)" fill="#231919"/>
    <path id="Path_2182" data-name="Path 2182" d="M1855.221,584.147c-7.551,3.171-18.474,9.3-20.543,17.228-2.3,8.282.2,21.69,6.227,23.357l-1.07,3.326c-8.35-2.974-9.908-18.242-6.82-27.218,1.511-4.569,5.371-8.052,9.467-10.645A62.47,62.47,0,0,1,1855.221,584.147Z" transform="translate(-430.331 -223.865)" fill="#231919"/>
    <path id="Path_2183" data-name="Path 2183" d="M1882.823,500.07s7.363,2.247,11.73,6.614,7.987,11.482,7.113,18.345-2.745,8.111-2.745,8.111,4.131,9.61,2.876,17.846-10.615,16.1-16.729,17.222c0,0,8.48-9.734,7.36-14.852,0,0-6.112,8.362-12.226,11.607s-30.327,0-31.2,4.243c0,0-7.986.375-13.1-13.1s8.985-25.708,8.985-25.708-10.981,5.865-16.722-2,4.118-13.977,4.617-13.477-3.868,7.612,1.248,9.484,6.3-5.679,14.351-13.727S1878.954,496.2,1882.823,500.07Z" transform="translate(-426.86 -166.677)" fill="#312e78"/>
    <path id="Path_2184" data-name="Path 2184" d="M1919.444,584.09a23.685,23.685,0,0,0,3.917-2.7,148.126,148.126,0,0,1,4.612-32.493c4.744-18.084-8.029-26.19-16.892-18.694-8.337,7.052-11.03.751-21.232,22.7s-1.605,35.427-1.605,35.427C1889.117,584.09,1913.327,587.335,1919.444,584.09Z" transform="translate(-466.1 -185.804)" fill="#321f48"/>
    <path id="Path_2185" data-name="Path 2185" d="M1945.482,744.365c0-13.118,1.361-55.783,1.361-55.783s-9.66-5.255-25.187-5.255-34.574,6.443-34.574,6.443,3.216,40.254-1.813,67.734a7.936,7.936,0,0,0,7.841,9.311h49.057a5.359,5.359,0,0,0,5.282-6.239C1946.3,753.611,1945.482,747.77,1945.482,744.365Z" transform="translate(-466.29 -290.411)" fill="#ffda88"/>
    <path id="Path_2186" data-name="Path 2186" d="M1849.671,934.469c-7.955,6.163-9.654,8.285-11.918,11.063a57.9,57.9,0,0,0-11.829,27.248s2.322,23.46,7.279,22.779c8.03-1.107,24.629-3.981,37.479-1.3s41.762,1.874,44.438-8.567c1.784-6.954-7.723-31.156-12.866-50.367Z" transform="translate(-426.558 -458.917)" fill="#464a7f"/>
    <path id="Path_2187" data-name="Path 2187" d="M1908.738,1016.906l-6.011,9.437c-2.958,6.767-1.231,22.97-1.231,22.97l-26.419-1.336-1.256-24.891Z" transform="translate(-458.695 -514.229)" fill="#35385f"/>
    <path id="Path_2188" data-name="Path 2188" d="M1954.2,1040.759c3.014-2.806,15.317-4.581,22.043,3.413,5.12,6.083-5.086,82.186-3.748,86.469s7.764,3.749,4.017,7.5-4.686,6.291-2.946,8.032,2.41,4.282.8,5.889-2.141,5.889-2.141,5.889h-17.945s-1.331-10.975-1.331-12.849-2.141-7.228-2.141-7.228,6.681-3.485,3.472-6.693,0-8.032,0-14.992S1945.915,1048.475,1954.2,1040.759Z" transform="translate(-510.171 -528.645)" fill="#6b6e99"/>
    <path id="Path_2189" data-name="Path 2189" d="M1825.585,1037.851c1.675-6.666,14.167-8.061,22.467-2.227s5.353,20.291,5.353,33.408-.858,45.51.508,49.526,5.651,8.031,4.044,12.314-2.413,3.39.356,6.157,1.251,4.819,1.251,7.764-1.338,12.047-1.338,12.047h-17.133s-.8-16.331-5.087-22.756-1.071-20.345-1.071-22.488-5.354-4.819-5.354-14.188S1824.042,1043.99,1825.585,1037.851Z" transform="translate(-426.149 -524.324)" fill="#6b6e99"/>
    <path id="Path_2190" data-name="Path 2190" d="M1868.321,702.907s-5.788,5.33-10.071,17.376,5.66,59.788,5.66,67.819,10.072,18.123,10.072,18.123l8.567-9.638-5.622-34.8Z" transform="translate(-447.529 -303.548)" fill="#fc7575"/>
    <path id="Path_2191" data-name="Path 2191" d="M2040.412,699.3s13.1,3.044,17.378,20.178,7.763,57.288,6.425,62.107-36.637,19.721-36.637,19.721l-2.984-5.265s26.771-20.345,26.771-23.29-11.986-36.963-11.986-36.963Z" transform="translate(-559.859 -301.127)" fill="#fc7575"/>
    <path id="Path_2192" data-name="Path 2192" d="M1775.631,878.56l6.96,49.4,86.737-3.083-1.717-49.522Z" transform="translate(-392.813 -419.251)" fill="#241145"/>
    <rect id="Rectangle_857" data-name="Rectangle 857" width="5.889" height="62.644" transform="translate(1360.063 576.296)" fill="#821b36"/>
    <rect id="Rectangle_858" data-name="Rectangle 858" width="6.623" height="66.927" transform="translate(1631.224 576.296)" fill="#821b36"/>
    <rect id="Rectangle_859" data-name="Rectangle 859" width="5.49" height="47.644" transform="translate(1597.645 576.184)" fill="#821b36"/>
    <rect id="Rectangle_860" data-name="Rectangle 860" width="5.49" height="47.644" transform="translate(1388.597 576.184)" fill="#821b36"/>
    <path id="Path_2193" data-name="Path 2193" d="M1947.856,617.719s4.515,23.455.872,29.894,2.672,26.979,7.332,25.419,12.514-20.724,9.489-25.419-.228-27.962-.228-27.962Z" transform="translate(-508.227 -246.39)" fill="#fc7575"/>
    <path id="Path_2194" data-name="Path 2194" d="M1948.29,617.719s.5,2.613,1.037,6.336c3.953,6.111,8.383,8.735,10.692,7.673a19.507,19.507,0,0,0,5.023-4.629c.329-4.257.714-7.448.714-7.448Z" transform="translate(-508.661 -246.39)" fill="#fd5e5a"/>
    <path id="Path_2195" data-name="Path 2195" d="M1931.69,521.137a17.189,17.189,0,0,0-3.244,9.234c0,4.992-.749,14.851,4.243,21.964s10.982,10.233,13.978,9.109,13.852-10.232,13.852-19.468-3.121-22.837-6.989-23.46S1934.81,520.139,1931.69,521.137Z" transform="translate(-495.319 -179.757)" fill="#fc8484"/>
    <path id="Path_2196" data-name="Path 2196" d="M1946.237,588.284c0,1.2-2.011,2.164-4.493,2.164s-4.492-.969-4.492-2.164,2.011-2.164,4.492-2.164S1946.237,587.089,1946.237,588.284Z" transform="translate(-501.255 -225.189)" fill="#fd5e5a"/>
    <path id="Path_2197" data-name="Path 2197" d="M2006.705,588.284c0,1.2-2.01,2.164-4.491,2.164s-4.493-.969-4.493-2.164,2.011-2.164,4.493-2.164S2006.705,587.089,2006.705,588.284Z" transform="translate(-541.827 -225.189)" fill="#fd5e5a"/>
    <path id="Path_2198" data-name="Path 2198" d="M1918.269,496.323a40.286,40.286,0,0,1-6.6,8.37c-4.556,4.555-16.972,3.994-16.972,3.994s7.363-3.994,6.613-4.742-9.515,2.371-9.515,6.614l-17.969-1.6s3.649-11.758,12.635-18.122,21.59-7.612,25.833-4.867a73.253,73.253,0,0,1,9.074,7.426A3.351,3.351,0,0,0,1918.269,496.323Z" transform="translate(-458.695 -157.073)" fill="#312e78"/>
    <path id="Path_2199" data-name="Path 2199" d="M1929.643,580.039h-6.324a5.575,5.575,0,0,1-5.574-5.574h0a5.575,5.575,0,0,1,5.574-5.574h6.324a5.573,5.573,0,0,1,5.574,5.573v0A5.573,5.573,0,0,1,1929.643,580.039Z" transform="translate(-488.166 -213.628)" fill="#ed1e79" opacity="0.61"/>
    <path id="Path_2200" data-name="Path 2200" d="M1930.254,580.068h-7.987a5,5,0,0,1-4.993-4.992v-1.663a5,5,0,0,1,4.993-4.992h7.987a5,5,0,0,1,4.991,4.992v1.663A5,5,0,0,1,1930.254,580.068Zm-7.987-11.148a4.5,4.5,0,0,0-4.493,4.492v1.663a4.5,4.5,0,0,0,4.493,4.493h7.987a4.5,4.5,0,0,0,4.491-4.493v-1.663a4.5,4.5,0,0,0-4.491-4.492Z" transform="translate(-487.851 -213.313)" fill="#231919"/>
    <path id="Path_2201" data-name="Path 2201" d="M1996.431,576.8h-6.321a5.575,5.575,0,0,1-5.575-5.575h0a5.575,5.575,0,0,1,5.574-5.574h6.323a5.575,5.575,0,0,1,5.574,5.574h0A5.575,5.575,0,0,1,1996.431,576.8Z" transform="translate(-532.979 -211.457)" fill="#ed1e79" opacity="0.61"/>
    <path id="Path_2202" data-name="Path 2202" d="M1997.045,576.833h-7.987a5,5,0,0,1-4.991-4.992v-1.664a5,5,0,0,1,4.991-4.992h7.987a5,5,0,0,1,4.993,4.992v1.664A5,5,0,0,1,1997.045,576.833Zm-7.987-11.148a4.5,4.5,0,0,0-4.491,4.492v1.664a4.5,4.5,0,0,0,4.491,4.493h7.987a4.5,4.5,0,0,0,4.493-4.493v-1.664a4.5,4.5,0,0,0-4.493-4.492Z" transform="translate(-532.666 -211.142)" fill="#231919"/>
    <path id="Path_2203" data-name="Path 2203" d="M1970.687,574.379c.6-2.459,4.272-2.41,4.653,0A2.687,2.687,0,0,0,1970.687,574.379Z" transform="translate(-523.689 -216.086)" fill="#231919"/>
    <path id="Path_2204" data-name="Path 2204" d="M1964.56,615.945s8.777.458,9.983-.749c0,0-1.389,3.078-3.314,3.827a4.613,4.613,0,0,1-3.841,0C1966.057,618.524,1964.56,615.945,1964.56,615.945Z" transform="translate(-519.578 -244.697)" fill="#432960"/>
    <path id="Path_2205" data-name="Path 2205" d="M1930.232,575.279s4.556-1.622,6.49-.749a18.6,18.6,0,0,1,3.869,2.576,8.485,8.485,0,0,0-4.43-1.7C1933.914,575.4,1930.232,575.279,1930.232,575.279Z" transform="translate(-496.545 -217.239)" fill="#231919"/>
    <path id="Path_2206" data-name="Path 2206" d="M1930.232,561.6s6.24-1.311,8.861-.811,4.649,1.217,3.931,1.934-4.992-1.123-7.112-1.123Z" transform="translate(-496.545 -208.119)" fill="#231919"/>
    <path id="Path_2207" data-name="Path 2207" d="M1930.232,575.279s4.556-1.622,6.49-.749a18.6,18.6,0,0,1,3.869,2.576,8.485,8.485,0,0,0-4.43-1.7C1933.914,575.4,1930.232,575.279,1930.232,575.279Z" transform="translate(-496.545 -217.239)" fill="#231919"/>
    <path id="Path_2208" data-name="Path 2208" d="M1930.232,561.6s6.24-1.311,8.861-.811,4.649,1.217,3.931,1.934-4.992-1.123-7.112-1.123Z" transform="translate(-496.545 -208.119)" fill="#2a2853"/>
    <path id="Path_2209" data-name="Path 2209" d="M1999.292,572.436s-4.555-1.623-6.489-.749a18.541,18.541,0,0,0-3.869,2.575,8.484,8.484,0,0,1,4.43-1.7C1995.611,572.561,1999.292,572.436,1999.292,572.436Z" transform="translate(-535.932 -215.332)" fill="#231919"/>
    <path id="Path_2210" data-name="Path 2210" d="M1998.774,558.24s-6.24-1.31-8.86-.81-4.648,1.216-3.931,1.934,4.993-1.124,7.114-1.124Z" transform="translate(-533.853 -205.862)" fill="#2a2853"/>
    <path id="Path_2211" data-name="Path 2211" d="M1879.508,1464.613c-8.086,5.119-14.1,4.582-18.169,2.629.1,1.357,1.781,8.7,6.009,9.97C1869.4,1477.829,1877.246,1469.506,1879.508,1464.613Z" transform="translate(-450.32 -814.623)" fill="#ed1e79"/>
    <path id="Path_2212" data-name="Path 2212" d="M1979.21,1448.9a46.067,46.067,0,0,0-.4-4.943c-4.664,4.194-10.894,6.956-16.919.8-.185,1.813-.3,3.22-.3,3.853,0,2.912-.4,7.091,1.246,8.733S1979.21,1454.138,1979.21,1448.9Z" transform="translate(-517.552 -800.763)" fill="#ed1e79"/>
    <path id="Path_2213" data-name="Path 2213" d="M1972.744,592.755a23.235,23.235,0,0,0,.189-4.952,26.414,26.414,0,0,0-.931,5.617,20.819,20.819,0,0,0,3.447-.347A18.8,18.8,0,0,0,1972.744,592.755Z" transform="translate(-524.571 -226.318)" fill="#432960"/>
    <g id="Group_3693" data-name="Group 3693" transform="translate(1503.469 421.389)">
      <g id="Group_3688" data-name="Group 3688" transform="translate(34.893)">
        <path id="Path_2214" data-name="Path 2214" d="M2284.616,769.86h-28.241a8.027,8.027,0,0,0-8.02,8.016V907.739a8.026,8.026,0,0,0,8.02,8.015h28.241a8.026,8.026,0,0,0,8.02-8.015V777.876A8.027,8.027,0,0,0,2284.616,769.86Zm3.317,137.879a3.32,3.32,0,0,1-3.317,3.316h-28.241a3.321,3.321,0,0,1-3.318-3.316V777.876a3.321,3.321,0,0,1,3.318-3.316h28.241a3.32,3.32,0,0,1,3.317,3.316Z" transform="translate(-2248.355 -769.86)" fill="#4a3f4c"/>
      </g>
      <g id="Group_3689" data-name="Group 3689" transform="translate(30.958 81.501)">
        <path id="Path_2215" data-name="Path 2215" d="M2287.144,1027.528h-8.916c-.215-.169-4.343-7.636-16.262-7.636-11.626,0-16.168,7.562-16.261,7.636H2236.4v-2.35h8.124c7.966-10.146,26.9-10.183,34.894,0h7.729Z" transform="translate(-2236.397 -1017.554)"/>
      </g>
      <g id="Group_3690" data-name="Group 3690" transform="translate(33.325)">
        <path id="Path_2216" data-name="Path 2216" d="M2282.42,769.86h-30.242c-4.735,0-8.588,3.6-8.588,8.016v13.917h6.888V777.876a3.263,3.263,0,0,1,3.2-3.316h27.242a3.263,3.263,0,0,1,3.2,3.316v13.917h6.888V777.876C2291.008,773.456,2287.156,769.86,2282.42,769.86Z" transform="translate(-2243.59 -769.86)"/>
      </g>
      <g id="Group_3691" data-name="Group 3691" transform="translate(21.063 230.809)">
        <path id="Path_2217" data-name="Path 2217" d="M2215.24,1478.474h-1.764a7.15,7.15,0,0,1-7.152-7.149h8.916Z" transform="translate(-2206.324 -1471.325)" fill="#413854"/>
        <path id="Path_2218" data-name="Path 2218" d="M2219.922,1471.622c.17,3.939,2.189,7.051,4.661,7.051s4.49-3.112,4.661-7.051Z" transform="translate(-2215.448 -1471.524)"/>
      </g>
      <g id="Group_3692" data-name="Group 3692" transform="translate(77.2 230.809)">
        <path id="Path_2219" data-name="Path 2219" d="M2385.846,1478.474h-1.763a7.15,7.15,0,0,1-7.151-7.149h8.914Z" transform="translate(-2376.932 -1471.325)" fill="#413854"/>
        <path id="Path_2220" data-name="Path 2220" d="M2390.526,1471.622c.172,3.939,2.191,7.051,4.662,7.051s4.491-3.112,4.661-7.051Z" transform="translate(-2386.053 -1471.524)"/>
      </g>
      <path id="Rectangle_861" data-name="Rectangle 861" d="M55.646,0h0a55.646,55.646,0,0,1,55.646,55.646v30.1A55.646,55.646,0,0,1,55.646,141.39h0A55.645,55.645,0,0,1,0,85.744v-30.1A55.646,55.646,0,0,1,55.646,0Z" transform="translate(0 90.301)" fill="#1b2b80"/>
      <path id="Rectangle_862" data-name="Rectangle 862" d="M52.9,0h0a52.9,52.9,0,0,1,52.9,52.9V88.486a52.9,52.9,0,0,1-52.9,52.9h0A52.9,52.9,0,0,1,0,88.486V52.9A52.9,52.9,0,0,1,52.9,0Z" transform="translate(2.743 90.301)" fill="#5ca9ff"/>
      <path id="Path_2221" data-name="Path 2221" d="M2232.829,1085.425v120.553a4.237,4.237,0,0,0,3.993-4.227v-112.1A4.236,4.236,0,0,0,2232.829,1085.425Z" transform="translate(-2203.045 -981.592)" fill="#2f6db2"/>
      <path id="Path_2222" data-name="Path 2222" d="M2386.873,1085.425v120.553a4.238,4.238,0,0,0,3.993-4.227v-112.1A4.237,4.237,0,0,0,2386.873,1085.425Z" transform="translate(-2306.402 -981.592)" fill="#2f6db2"/>
      <path id="Path_2223" data-name="Path 2223" d="M2356.064,1085.425v120.553a4.238,4.238,0,0,0,3.992-4.227v-112.1A4.237,4.237,0,0,0,2356.064,1085.425Z" transform="translate(-2285.73 -981.592)" fill="#2f6db2"/>
      <path id="Path_2224" data-name="Path 2224" d="M2325.256,1085.425v120.553a4.238,4.238,0,0,0,3.992-4.227v-112.1A4.236,4.236,0,0,0,2325.256,1085.425Z" transform="translate(-2265.06 -981.592)" fill="#2f6db2"/>
      <path id="Path_2225" data-name="Path 2225" d="M2294.449,1085.425v120.553a4.238,4.238,0,0,0,3.992-4.227v-112.1A4.236,4.236,0,0,0,2294.449,1085.425Z" transform="translate(-2244.389 -981.592)" fill="#2f6db2"/>
      <path id="Path_2226" data-name="Path 2226" d="M2263.639,1085.425v120.553a4.237,4.237,0,0,0,3.992-4.227v-112.1A4.236,4.236,0,0,0,2263.639,1085.425Z" transform="translate(-2223.717 -981.592)" fill="#2f6db2"/>
      <rect id="Rectangle_863" data-name="Rectangle 863" width="33.295" height="12.239" transform="translate(73.777 71.679)" fill="#2f6db2"/>
    </g>
    <g id="Group_3694" data-name="Group 3694" transform="translate(1571.692 250.499)">
      <path id="Path_2227" data-name="Path 2227" d="M2393.241,250.575c-3.067-1.106-9.9,10.105-11.724,14.639l-26.64,5.759c-2.865.736-2.477,3.568-5.227,10.1l28.436-3.271-5.262,19.8c-6.741,3.2-7.356,2.75-7.842,4.1l-1.222,3.389,8.031-2.5c-.426,5.658,1.32,6.585,4.782,1.686l4.618,7.1c.936-2.9,1.64-3.76,1.239-4.659l-3.47-6.958,8.442-18.281,19.336,20.185c2.076-6.861,4.159-8.711,2.422-11.109l-16.367-20.847C2394.293,265.421,2396.4,251.713,2393.241,250.575Z" transform="translate(-2349.65 -250.499)" fill="#5ca9ff"/>
    </g>
  </g>
</svg>
